# xmcd
#
# Track frame offsets:
#	150
#	22595
#	38220
#	56355
#	72115
#	89550
#	111335
#	130860
#	148565
#	162635
#	180275
#	198950
#	215135
#	233370
#	253780
#	272010
#	289665
#	307972
#	325819
#
# Disc length: 4613 seconds
#
# Revision: 0
# Processed by: cddbd v1.5.2PL0 Copyright (c) Steve Scherf et al.
# Submitted via: audiograbber 1.83.01
#
DISCID=0a120313
DTITLE=Paul Tilley - Moma's Goin" Home
DYEAR=1900
DGENRE=
TTITLE0=Everything That Glitters
TTITLE1=What's A Memory Like You
TTITLE2=Tough Little Boys
TTITLE3=I Can't Be Your Friend
TTITLE4=Help Pour Out The Rain
TTITLE5=Almost Home
TTITLE6=El Paso City
TTITLE7=What Was I Thinking
TTITLE8=Right Where I Need To Be
TTITLE9=She Couldn't Change Me
TTITLE10=Desperately
TTITLE11=In Love With A Married Woman
TTITLE12=You'll Think Of Me
TTITLE13=Letters From Home
TTITLE14=Whiskey Girl
TTITLE15=Walkin In Memphis
TTITLE16=Paint Me A Birmingham
TTITLE17=She Thinks She Needs Me
TTITLE18=Moma's Goin' Home
EXTD=
EXTT0=
EXTT1=
EXTT2=
EXTT3=
EXTT4=
EXTT5=
EXTT6=
EXTT7=
EXTT8=
EXTT9=
EXTT10=
EXTT11=
EXTT12=
EXTT13=
EXTT14=
EXTT15=
EXTT16=
EXTT17=
EXTT18=
PLAYORDER=
